<svg width="30" height="33" viewBox="0 0 30 33" fill="none" xmlns="http://www.w3.org/2000/svg">
<g id="Group">
<path id="Vector" d="M14.9999 1.25L28.6394 9.125V22.8538C28.6393 23.4681 28.4776 24.0716 28.1704 24.6037C27.8632 25.1357 27.4214 25.5776 26.8894 25.8847L16.7499 31.7403C16.2178 32.0474 15.6142 32.2092 14.9999 32.2092C14.3855 32.2092 13.7819 32.0474 13.2499 31.7403L3.11035 25.8847C2.5783 25.5776 2.13647 25.1357 1.82929 24.6037C1.5221 24.0716 1.36037 23.4681 1.36035 22.8538V9.125L14.9999 1.25Z" stroke="black" stroke-linecap="round" stroke-linejoin="round"/>
<path id="Vector_2" d="M14.9999 8.25V17M14.9999 17L7.42236 21.375M14.9999 17L22.5774 21.375" stroke="black" stroke-linecap="round" stroke-linejoin="round"/>
</g>
</svg>
