<svg width="36" height="36" viewBox="0 0 36 36" fill="none" xmlns="http://www.w3.org/2000/svg">
<g id="Group">
<path id="Vector" d="M13.8002 1.4082V4.7682C13.8002 5.69487 13.0085 6.43154 12.2002 6.8882C10.6768 7.7532 9.60352 9.7332 9.60352 11.4849C9.60352 12.5983 10.0458 13.6662 10.8332 14.4535C11.6205 15.2409 12.6884 15.6832 13.8018 15.6832C14.9153 15.6832 15.9832 15.2409 16.7705 14.4535C17.5579 13.6662 18.0002 12.5983 18.0002 11.4849C18.0002 12.5983 18.4425 13.6662 19.2298 14.4535C20.0172 15.2409 21.085 15.6832 22.1985 15.6832C23.312 15.6832 24.3798 15.2409 25.1672 14.4535C25.9545 13.6662 26.3968 12.5983 26.3968 11.4849C26.3968 9.7332 25.3235 7.75154 23.7985 6.8882C22.9918 6.43154 22.1985 5.69487 22.1985 4.7682V1.4082M13.8652 34.6665V31.3082C13.8652 30.3799 13.0718 29.6432 12.2652 29.1865C10.7385 28.3232 9.66685 26.3432 9.66685 24.5899C9.66685 23.4764 10.1092 22.4085 10.8965 21.6212C11.6839 20.8339 12.7517 20.3915 13.8652 20.3915C14.9786 20.3915 16.0465 20.8339 16.8339 21.6212C17.6212 22.4085 18.0635 23.4764 18.0635 24.5899C18.0635 23.4764 18.5058 22.4085 19.2932 21.6212C20.0805 20.8339 21.1484 20.3915 22.2618 20.3915C23.3753 20.3915 24.4432 20.8339 25.2305 21.6212C26.0179 22.4085 26.4602 23.4764 26.4602 24.5899C26.4602 26.3432 25.3868 28.3232 23.8618 29.1865C23.0552 29.6432 22.2618 30.3799 22.2618 31.3082V34.6665" stroke="black" stroke-width="1.5" stroke-linecap="round" stroke-linejoin="round"/>
<path id="Vector_2" d="M34.6668 17.9999C34.6668 25.8566 34.6668 29.7849 32.2252 32.2249C29.7868 34.6666 25.8568 34.6666 18.0002 34.6666C10.1435 34.6666 6.21516 34.6666 3.7735 32.2249C1.3335 29.7866 1.3335 25.8566 1.3335 17.9999C1.3335 10.1433 1.3335 6.21492 3.7735 3.77325C6.21683 1.33325 10.1435 1.33325 18.0002 1.33325C25.8568 1.33325 29.7852 1.33325 32.2252 3.77325C33.8485 5.39659 34.3918 7.67825 34.5752 11.3333" stroke="black" stroke-width="1.5" stroke-linecap="round"/>
</g>
</svg>
