<svg width="44" height="44" viewBox="0 0 44 44" fill="none" xmlns="http://www.w3.org/2000/svg">
<g id="radix-icons:video">
<path id="Vector" fill-rule="evenodd" clip-rule="evenodd" d="M13.9744 9.1579C16.6434 8.92643 19.321 8.80704 22 8.80003C24.7573 8.80003 27.4795 8.94377 30.0256 9.1579C33.088 9.41603 35.0709 9.59203 36.5845 9.9499C37.9632 10.2755 38.7347 10.7067 39.3976 11.3843C39.468 11.4576 39.5736 11.5691 39.6381 11.6483C40.2248 12.323 40.6061 13.1678 40.8261 14.7635C41.0608 16.4736 41.0667 18.703 41.0667 22.0734C41.0667 25.4027 41.0608 27.6027 40.8261 29.2894C40.6091 30.8616 40.2277 31.6976 39.6381 32.3811C39.5594 32.4713 39.4782 32.5593 39.3947 32.6451C38.72 33.3315 37.9573 33.7568 36.6139 34.0736C35.1267 34.4256 33.1877 34.5958 30.1781 34.848C27.6291 35.0592 24.8629 35.2 22 35.2C19.1371 35.2 16.368 35.0592 13.8219 34.848C10.8123 34.5958 8.87333 34.4256 7.38613 34.0736C6.03973 33.7568 5.27707 33.3315 4.60533 32.6451C4.52185 32.5593 4.44066 32.4712 4.36187 32.3811C3.7752 31.6976 3.39387 30.8616 3.17387 29.2894C2.9392 27.6027 2.93333 25.4027 2.93333 22.0734C2.93333 18.703 2.9392 16.4707 3.17387 14.7635C3.39387 13.1678 3.7752 12.323 4.36187 11.6483C4.42933 11.5691 4.532 11.4576 4.6024 11.3843C5.26533 10.7067 6.0368 10.2755 7.41547 9.9499C8.932 9.59203 10.912 9.41603 13.9744 9.1579ZM0 22.0734C0 15.4968 0 12.2086 2.14133 9.7299C2.24693 9.6067 2.39067 9.45123 2.50507 9.3339C4.79307 6.99017 7.77333 6.7379 13.728 6.2363C16.3387 6.01337 19.1459 5.8667 22 5.8667C24.8541 5.8667 27.6613 6.01337 30.272 6.2363C36.2267 6.7379 39.2069 6.99017 41.4949 9.3339C41.6093 9.45123 41.7501 9.6067 41.8587 9.7299C44 12.2086 44 15.4968 44 22.0734C44 28.5707 44 31.8208 41.8557 34.2995C41.7373 34.4349 41.615 34.567 41.4891 34.6955C39.1981 37.0392 36.2736 37.2827 30.4216 37.7696C27.808 37.9896 24.9568 38.1334 22 38.1334C19.0432 38.1334 16.192 37.9867 13.5813 37.7696C7.7264 37.2827 4.80187 37.0363 2.51093 34.6955C2.38507 34.5669 2.2628 34.4349 2.14427 34.2995C0 31.8208 0 28.5707 0 22.0734ZM15.4 15.7902C15.3996 15.6682 15.4296 15.548 15.4873 15.4406C15.545 15.3331 15.6287 15.2417 15.7306 15.1748C15.8325 15.1078 15.9496 15.0673 16.0711 15.0569C16.1927 15.0466 16.3149 15.0667 16.4267 15.1155L30.5888 21.3283C31.1755 21.5864 31.1755 22.4136 30.5888 22.6718L16.4267 28.8816C16.3151 28.9303 16.1932 28.9505 16.0719 28.9403C15.9506 28.9301 15.8337 28.8898 15.7318 28.8232C15.63 28.7565 15.5463 28.6656 15.4884 28.5585C15.4304 28.4514 15.4001 28.3316 15.4 28.2099V15.7902Z" fill="black"/>
</g>
</svg>
