<svg width="37" height="37" viewBox="0 0 37 37" fill="none" xmlns="http://www.w3.org/2000/svg">
<g id="solar:bones-broken">
<path id="Vector" d="M13.875 6.93761H12.3333C8.69962 6.93761 6.882 6.93761 5.7535 8.06611C4.625 9.19461 4.625 11.0122 4.625 14.6459V15.4168M13.875 30.0626H12.3333C8.69962 30.0626 6.882 30.0626 5.7535 28.9341C4.625 27.8041 4.625 25.988 4.625 22.3543V21.5834M21.0561 3.6184C17.723 3.03719 16.0565 2.74736 14.9665 3.71398C13.875 4.68061 13.875 6.4489 13.875 9.98394V27.0163C13.875 30.5513 13.875 32.3196 14.965 33.2862C16.0549 34.2529 17.7215 33.963 21.0545 33.3818L24.6466 32.7559C28.3374 32.1115 30.1827 31.7893 31.2789 30.4357C32.375 29.0806 32.375 27.1226 32.375 23.2053V13.7949C32.375 9.87911 32.375 7.92119 31.2804 6.56606C30.5466 5.66111 29.4797 5.21711 27.75 4.83015M18.5 16.9584V20.0418" stroke="black" stroke-width="1.5" stroke-linecap="round"/>
</g>
</svg>
